<svg width="11" height="22" viewBox="0 0 11 22" fill="none" xmlns="http://www.w3.org/2000/svg">
<path d="M8.48438 6.50781C8.91406 5.92188 9.1875 5.21875 9.1875 4.4375C9.1875 2.5625 7.625 1 5.75 1C3.83594 1 2.3125 2.5625 2.3125 4.4375C2.3125 5.21875 2.54688 5.92188 2.97656 6.50781C1.84375 6.89844 1.0625 7.95312 1.0625 9.20312V13.3047C1.0625 14.2812 1.72656 15.1016 2.625 15.3359V18.9297C2.625 20.1016 3.52344 21 4.69531 21H6.80469C7.9375 21 8.875 20.1016 8.875 18.9297V15.3359C9.73438 15.1016 10.4375 14.2812 10.4375 13.3047V9.20312C10.4375 7.95312 9.61719 6.89844 8.48438 6.50781ZM5.75 2.25C6.92188 2.25 7.9375 3.26562 7.9375 4.4375C7.9375 5.64844 6.92188 6.625 5.75 6.625C4.53906 6.625 3.5625 5.64844 3.5625 4.4375C3.5625 3.26562 4.53906 2.25 5.75 2.25ZM9.1875 13.3047C9.1875 13.7734 8.79688 14.125 8.36719 14.125H7.625V18.9297C7.625 19.3984 7.23438 19.75 6.80469 19.75H4.69531C4.22656 19.75 3.875 19.3984 3.875 18.9297V14.125H3.13281C2.66406 14.125 2.3125 13.7734 2.3125 13.3047V9.20312C2.3125 8.30469 3.01562 7.5625 3.95312 7.5625H4.30469C5.20312 7.99219 6.21875 7.99219 7.15625 7.5625H7.54688C8.44531 7.5625 9.1875 8.30469 9.1875 9.20312V13.3047Z" fill="#FF4F17" stroke="white" stroke-width="0.5"/>
</svg>
